<?xml version="1.0" standalone="no"?>
<!DOCTYPE svg PUBLIC "-//W3C//DTD SVG 20010904//EN"
 "http://www.w3.org/TR/2001/REC-SVG-20010904/DTD/svg10.dtd">
<svg version="1.0" xmlns="http://www.w3.org/2000/svg"
 width="60.000000pt" height="60.000000pt" viewBox="0 0 60.000000 60.000000"
 preserveAspectRatio="xMidYMid meet">

<g transform="translate(0.000000,60.000000) scale(0.100000,-0.100000)"
fill="#000000" stroke="none">
<path d="M540 588 c-75 -21 -95 -63 -109 -241 -5 -60 -12 -111 -14 -114 -3 -2
-45 -6 -94 -8 -89 -3 -172 -23 -208 -49 -33 -24 -14 -25 70 -5 44 10 98 19
120 19 49 0 120 -31 134 -58 17 -32 14 -34 -21 -15 -25 13 -56 18 -123 18 -96
0 -149 -15 -165 -46 -23 -42 39 -109 75 -79 19 16 19 41 0 66 -23 31 -19 34
49 34 103 0 126 -7 126 -41 0 -30 30 -69 54 -69 46 0 70 152 32 200 -17 21 -4
253 17 303 17 40 51 60 78 46 11 -6 21 -4 30 7 21 25 -8 44 -51 32z m-346
-531 c8 -12 7 -20 -2 -29 -16 -16 -47 13 -38 37 7 19 25 16 40 -8z m254 -1 c2
-10 -1 -23 -8 -30 -14 -14 -41 19 -33 40 8 20 37 13 41 -10z"/>
<path d="M53 485 c-52 -22 -60 -53 -30 -117 28 -60 100 -148 90 -111 -4 16 2
25 25 37 22 11 32 12 41 3 8 -8 11 -7 11 5 0 17 43 33 48 18 2 -5 10 -3 19 5
8 8 31 16 51 16 20 1 30 3 21 6 -19 5 -34 46 -18 52 6 2 4 8 -4 15 -8 6 -18
21 -21 33 -6 19 -3 22 31 25 31 2 24 5 -40 16 -101 16 -184 15 -224 -3z m212
-35 c20 -39 20 -40 -13 -40 -20 0 -32 8 -45 29 -23 39 -22 41 13 41 23 0 33
-7 45 -30z m-86 -9 c22 -31 19 -41 -14 -41 -20 0 -27 8 -53 63 -2 4 8 7 21 7
17 0 33 -10 46 -29z m-69 -41 c0 -10 -47 -30 -54 -23 -8 9 -8 58 1 66 7 7 53
-31 53 -43z m180 -4 c0 -2 3 -11 6 -19 8 -22 -44 -29 -56 -7 -5 10 -6 20 -3
24 7 7 53 8 53 2z m-70 -26 c6 -11 7 -20 3 -20 -4 0 -18 -3 -29 -6 -25 -7 -43
24 -22 38 21 13 37 9 48 -12z m-73 -19 c10 -16 7 -20 -23 -34 -32 -16 -34 -16
-45 4 -12 24 -12 25 21 38 34 13 34 13 47 -8z"/>
</g>
</svg>
